<svg xmlns="http://www.w3.org/2000/svg" xmlns:xlink="http://www.w3.org/1999/xlink" width="24" height="32" viewBox="0 0 24 32"><defs><path id="rfs6a" d="M753 66c-1.995.01-12-14.983-12-20 0-6.627 5.373-12 12-12s12 5.373 12 12c0 4.95-10.036 20.01-12 20zm0-30c-5.523 0-10 4.477-10 10 0 4.18 8.337 17.009 10 17 1.636.009 10-12.875 10-17 0-5.523-4.477-10-10-10zm0 15a5 5 0 1 1 0-10 5 5 0 0 1 0 10zm0-8a3 3 0 1 0 0 6 3 3 0 0 0 0-6z"/></defs><g><g transform="translate(-741 -34)"><use fill="#fff" xlink:href="#rfs6a"/></g></g></svg>