<svg xmlns="http://www.w3.org/2000/svg" xmlns:xlink="http://www.w3.org/1999/xlink" width="17" height="17" viewBox="0 0 17 17"><defs><path id="3yd0a" d="M1375.08 34.308a1.112 1.112 0 0 1 1.573 0l2.36 3.148c.361.533.435 1.14 0 1.574l-.962.963a27.2 27.2 0 0 0 2.536 2.972c1.091 1.091 2.305 2.084 3.397 2.898l.93-.93c.435-.435 1.04-.362 1.574 0l3.147 2.36c.527.365.434 1.14 0 1.574l-1.574 1.574c-.869.87-2 .59-3.147 0 0 0-3.473-1.95-6.447-4.925-2.797-2.798-4.96-6.486-4.96-6.486-.452-1.24-.87-2.278 0-3.148l1.573-1.574zm1.525 5.557l1.264-1.264c.277-.277.23-.663 0-1.002l-1.502-2.003c-.276-.37-.724-.277-1 0l-1.002 1.002c-.393.37-.28 1.23-.072 1.645.93 1.771 2.993 4.498 4.72 6.296 1.993 2.16 6.688 5.115 6.688 5.115.363.19 1.368.205 1.645-.071l1.001-1.002c.207-.346.3-.748 0-1.002l-2.002-1.502c-.34-.23-.725-.277-1.002 0l-1.233 1.234c-.291-.205-4.926-3.252-7.505-7.446z"/></defs><g><g transform="translate(-1373 -34)"><use fill="#fff" xlink:href="#3yd0a"/></g></g></svg>